<svg xmlns="http://www.w3.org/2000/svg" xmlns:xlink="http://www.w3.org/1999/xlink" width="500" zoomAndPan="magnify" viewBox="0 0 375 374.999991" height="500" preserveAspectRatio="xMidYMid meet" version="1.0"><defs><g/><clipPath id="38cedcabca"><path d="M 22.84375 147.628906 L 83.59375 147.628906 L 83.59375 208.378906 L 22.84375 208.378906 Z M 22.84375 147.628906 " clip-rule="nonzero"/></clipPath><clipPath id="dbaa0cdb97"><path d="M 66.066406 147.699219 L 66.253906 147.707031 L 66.34375 147.714844 L 66.433594 147.726562 L 66.527344 147.738281 L 66.617188 147.75 L 66.796875 147.78125 L 66.890625 147.800781 L 66.976562 147.820312 L 67.15625 147.867188 L 67.242188 147.894531 L 67.332031 147.921875 L 67.417969 147.949219 L 67.589844 148.011719 L 67.671875 148.046875 L 67.757812 148.082031 L 67.921875 148.160156 L 68.003906 148.203125 L 68.085938 148.242188 L 68.164062 148.289062 L 68.246094 148.332031 L 68.324219 148.378906 L 68.402344 148.429688 L 68.476562 148.480469 L 68.554688 148.53125 L 68.703125 148.640625 L 68.773438 148.695312 L 68.84375 148.753906 L 68.917969 148.8125 L 68.984375 148.875 L 69.054688 148.9375 L 69.121094 149.003906 L 69.1875 149.066406 L 69.300781 149.179688 L 69.445312 149.328125 L 69.625 149.503906 L 69.832031 149.710938 L 70.0625 149.945312 L 70.324219 150.203125 L 73.941406 153.820312 L 74.371094 154.246094 L 74.800781 154.679688 L 75.238281 155.113281 L 76.113281 155.988281 L 76.550781 156.421875 L 76.980469 156.855469 L 77.410156 157.28125 L 77.828125 157.703125 L 78.242188 158.113281 L 79.035156 158.90625 L 79.410156 159.285156 L 80.113281 159.988281 L 80.441406 160.3125 L 81.027344 160.898438 L 81.285156 161.160156 L 81.519531 161.390625 L 82.164062 162.035156 L 82.296875 162.175781 L 82.425781 162.316406 L 82.542969 162.460938 L 82.65625 162.613281 L 82.761719 162.765625 L 82.863281 162.921875 L 82.953125 163.082031 L 83.039062 163.246094 L 83.121094 163.410156 L 83.191406 163.578125 L 83.257812 163.75 L 83.3125 163.917969 L 83.367188 164.09375 L 83.410156 164.265625 L 83.449219 164.445312 L 83.480469 164.621094 L 83.503906 164.796875 L 83.519531 164.976562 L 83.53125 165.15625 L 83.535156 165.335938 L 83.53125 165.515625 L 83.523438 165.691406 L 83.503906 165.871094 L 83.480469 166.050781 L 83.449219 166.226562 L 83.414062 166.402344 L 83.367188 166.578125 L 83.316406 166.75 L 83.257812 166.921875 L 83.195312 167.09375 L 83.121094 167.257812 L 83.042969 167.425781 L 82.957031 167.589844 L 82.867188 167.746094 L 82.769531 167.90625 L 82.664062 168.058594 L 82.550781 168.210938 L 82.429688 168.355469 L 82.304688 168.5 L 82.171875 168.636719 L 82.101562 168.703125 L 81.96875 168.828125 L 81.898438 168.890625 L 81.828125 168.949219 L 81.753906 169.007812 L 81.683594 169.0625 L 81.609375 169.121094 L 81.53125 169.171875 L 81.457031 169.222656 L 81.378906 169.273438 L 81.304688 169.324219 L 81.222656 169.371094 L 81.144531 169.417969 L 81.0625 169.460938 L 80.984375 169.503906 L 80.820312 169.582031 L 80.734375 169.621094 L 80.652344 169.65625 L 80.566406 169.6875 L 80.480469 169.722656 L 80.394531 169.753906 L 80.308594 169.78125 L 80.21875 169.808594 L 80.132812 169.835938 L 79.953125 169.882812 L 79.867188 169.902344 L 79.777344 169.921875 L 79.6875 169.9375 L 79.59375 169.953125 L 79.507812 169.964844 L 79.582031 170.042969 L 79.964844 170.425781 L 80.117188 170.585938 L 80.261719 170.746094 L 80.398438 170.914062 L 80.523438 171.085938 L 80.644531 171.257812 L 80.757812 171.4375 L 80.863281 171.617188 L 80.957031 171.800781 L 81.046875 171.988281 L 81.128906 172.179688 L 81.203125 172.371094 L 81.265625 172.566406 L 81.324219 172.761719 L 81.375 172.960938 L 81.417969 173.160156 L 81.453125 173.363281 L 81.480469 173.5625 L 81.5 173.765625 L 81.511719 173.96875 L 81.515625 174.171875 L 81.511719 174.375 L 81.5 174.578125 L 81.480469 174.78125 L 81.453125 174.980469 L 81.417969 175.183594 L 81.375 175.382812 L 81.324219 175.578125 L 81.265625 175.777344 L 81.199219 175.972656 L 81.125 176.164062 L 81.042969 176.351562 L 80.953125 176.539062 L 80.859375 176.726562 L 80.753906 176.90625 L 80.640625 177.085938 L 80.519531 177.257812 L 80.390625 177.429688 L 80.257812 177.59375 L 80.113281 177.757812 L 79.960938 177.914062 L 79.886719 177.988281 L 79.808594 178.0625 L 79.730469 178.132812 L 79.648438 178.203125 L 79.570312 178.269531 L 79.484375 178.335938 L 79.320312 178.460938 L 79.234375 178.523438 L 79.144531 178.578125 L 79.058594 178.636719 L 78.878906 178.746094 L 78.789062 178.796875 L 78.695312 178.847656 L 78.605469 178.894531 L 78.511719 178.941406 L 78.414062 178.984375 L 78.320312 179.027344 L 78.226562 179.066406 L 78.03125 179.144531 L 77.933594 179.179688 L 77.832031 179.210938 L 77.734375 179.242188 L 77.53125 179.296875 L 77.226562 179.367188 L 77.121094 179.386719 L 77.019531 179.402344 L 76.914062 179.417969 L 76.808594 179.429688 L 76.707031 179.441406 L 76.496094 179.457031 L 76.390625 179.460938 L 76.179688 179.460938 L 76.222656 179.417969 L 76.117188 179.417969 L 75.90625 179.410156 L 75.695312 179.394531 L 75.484375 179.371094 L 75.382812 179.355469 L 75.277344 179.339844 L 75.175781 179.320312 L 75.070312 179.300781 L 74.96875 179.277344 L 74.765625 179.222656 L 74.667969 179.195312 L 74.566406 179.164062 L 74.46875 179.132812 L 74.371094 179.097656 L 74.269531 179.058594 L 74.171875 179.019531 L 74.078125 178.980469 L 73.984375 178.9375 L 73.886719 178.894531 L 73.699219 178.800781 L 73.519531 178.699219 L 73.339844 178.589844 L 73.25 178.53125 L 73.164062 178.472656 L 73.078125 178.410156 L 72.996094 178.347656 L 72.910156 178.285156 L 72.746094 178.152344 L 72.589844 178.011719 L 72.511719 177.9375 L 71.488281 176.914062 L 69.902344 175.324219 L 66.671875 172.085938 L 66.546875 171.960938 L 47.160156 191.347656 L 53.074219 197.261719 L 53.226562 197.417969 L 53.371094 197.582031 L 53.507812 197.746094 L 53.632812 197.917969 L 53.753906 198.09375 L 53.867188 198.269531 L 53.972656 198.453125 L 54.066406 198.636719 L 54.15625 198.824219 L 54.238281 199.011719 L 54.3125 199.203125 L 54.378906 199.398438 L 54.433594 199.597656 L 54.484375 199.792969 L 54.527344 199.996094 L 54.5625 200.195312 L 54.589844 200.394531 L 54.609375 200.597656 L 54.621094 200.800781 L 54.625 201.003906 L 54.621094 201.207031 L 54.609375 201.410156 L 54.589844 201.613281 L 54.5625 201.816406 L 54.527344 202.015625 L 54.484375 202.214844 L 54.433594 202.414062 L 54.375 202.609375 L 54.308594 202.804688 L 54.234375 202.996094 L 54.152344 203.1875 L 54.0625 203.375 L 53.96875 203.558594 L 53.863281 203.742188 L 53.75 203.917969 L 53.628906 204.09375 L 53.5 204.261719 L 53.367188 204.429688 L 53.222656 204.589844 L 53.070312 204.746094 L 52.996094 204.824219 L 52.839844 204.964844 L 52.757812 205.035156 L 52.679688 205.101562 L 52.59375 205.167969 L 52.511719 205.230469 L 52.429688 205.296875 L 52.34375 205.355469 L 52.253906 205.414062 L 52.167969 205.472656 L 52.078125 205.527344 L 51.988281 205.578125 L 51.898438 205.632812 L 51.804688 205.683594 L 51.714844 205.730469 L 51.621094 205.777344 L 51.523438 205.820312 L 51.429688 205.863281 L 51.335938 205.902344 L 51.238281 205.941406 L 51.042969 206.011719 L 50.941406 206.046875 L 50.84375 206.074219 L 50.742188 206.105469 L 50.640625 206.132812 L 50.4375 206.179688 L 50.335938 206.199219 L 50.230469 206.21875 L 50.128906 206.234375 L 50.023438 206.25 L 49.921875 206.265625 L 49.816406 206.273438 L 49.710938 206.285156 L 49.394531 206.296875 L 49.328125 206.296875 L 49.332031 206.296875 L 49.289062 206.296875 L 49.328125 206.296875 L 49.230469 206.296875 L 49.125 206.292969 L 48.921875 206.277344 L 48.816406 206.269531 L 48.714844 206.257812 L 48.511719 206.226562 L 48.308594 206.1875 L 48.210938 206.167969 L 48.109375 206.144531 L 48.011719 206.121094 L 47.910156 206.09375 L 47.8125 206.0625 L 47.71875 206.03125 L 47.621094 206 L 47.523438 205.964844 L 47.429688 205.929688 L 47.335938 205.890625 L 47.242188 205.847656 L 47.148438 205.808594 L 47.054688 205.761719 L 46.964844 205.71875 L 46.875 205.671875 L 46.695312 205.570312 L 46.523438 205.460938 L 46.433594 205.40625 L 46.269531 205.289062 L 46.183594 205.226562 L 46.105469 205.164062 L 46.023438 205.101562 L 45.867188 204.96875 L 45.789062 204.898438 L 45.714844 204.824219 L 45.640625 204.753906 L 45.472656 204.585938 L 45.253906 204.371094 L 45.171875 204.285156 L 45.160156 204.367188 L 45.128906 204.546875 L 45.089844 204.722656 L 45.046875 204.898438 L 44.992188 205.070312 L 44.933594 205.242188 L 44.867188 205.410156 L 44.796875 205.578125 L 44.71875 205.746094 L 44.628906 205.90625 L 44.535156 206.066406 L 44.4375 206.222656 L 44.332031 206.378906 L 44.21875 206.527344 L 44.097656 206.675781 L 43.96875 206.816406 L 43.835938 206.957031 L 43.703125 207.082031 L 43.632812 207.144531 L 43.421875 207.320312 L 43.351562 207.375 L 43.203125 207.484375 L 43.128906 207.53125 L 43.050781 207.582031 L 42.816406 207.722656 L 42.738281 207.765625 L 42.65625 207.808594 L 42.574219 207.847656 L 42.496094 207.886719 L 42.410156 207.921875 L 42.246094 207.992188 L 41.988281 208.085938 L 41.902344 208.109375 L 41.816406 208.136719 L 41.726562 208.160156 L 41.640625 208.183594 L 41.550781 208.203125 L 41.464844 208.222656 L 41.371094 208.238281 L 41.285156 208.253906 L 41.195312 208.265625 L 41.101562 208.28125 L 40.921875 208.296875 L 40.828125 208.304688 L 40.738281 208.308594 L 40.644531 208.3125 L 40.367188 208.3125 L 40.277344 208.304688 L 40.183594 208.300781 L 40.089844 208.292969 L 39.910156 208.269531 L 39.816406 208.257812 L 39.636719 208.226562 L 39.457031 208.1875 L 39.367188 208.164062 L 39.28125 208.140625 L 39.191406 208.113281 L 39.019531 208.058594 L 38.933594 208.027344 L 38.847656 207.992188 L 38.761719 207.960938 L 38.679688 207.925781 L 38.59375 207.886719 L 38.429688 207.808594 L 38.347656 207.765625 L 38.269531 207.722656 L 38.113281 207.628906 L 37.957031 207.527344 L 37.882812 207.476562 L 37.660156 207.3125 L 37.519531 207.195312 L 37.449219 207.132812 L 37.382812 207.070312 L 37.3125 207.007812 L 37.25 206.941406 L 37.132812 206.828125 L 36.988281 206.679688 L 36.808594 206.503906 L 36.605469 206.296875 L 35.203125 204.894531 L 34.855469 204.550781 L 34.496094 204.1875 L 33.730469 203.421875 L 33.328125 203.023438 L 32.917969 202.609375 L 32.496094 202.191406 L 32.070312 201.761719 L 31.636719 201.332031 L 31.203125 200.894531 L 30.328125 200.019531 L 29.890625 199.585938 L 29.03125 198.726562 L 28.613281 198.304688 L 28.199219 197.894531 L 27.796875 197.492188 L 27.410156 197.101562 L 27.03125 196.726562 L 26.671875 196.363281 L 25.417969 195.109375 L 25.15625 194.851562 L 24.925781 194.617188 L 24.542969 194.234375 L 24.394531 194.089844 L 24.28125 193.972656 L 24.148438 193.835938 L 24.019531 193.691406 L 23.902344 193.546875 L 23.789062 193.394531 L 23.683594 193.242188 L 23.582031 193.085938 L 23.492188 192.925781 L 23.40625 192.761719 L 23.324219 192.597656 L 23.253906 192.429688 L 23.1875 192.261719 L 23.078125 191.917969 L 23.035156 191.742188 L 22.996094 191.566406 L 22.964844 191.386719 L 22.941406 191.210938 L 22.921875 191.03125 L 22.914062 190.851562 L 22.910156 190.671875 L 22.914062 190.496094 L 22.921875 190.316406 L 22.941406 190.136719 L 22.964844 189.957031 L 22.996094 189.78125 L 23.03125 189.605469 L 23.074219 189.429688 L 23.183594 189.085938 L 23.25 188.917969 L 23.320312 188.75 L 23.402344 188.582031 L 23.484375 188.421875 L 23.578125 188.261719 L 23.675781 188.101562 L 23.78125 187.949219 L 23.894531 187.800781 L 24.015625 187.652344 L 24.140625 187.507812 L 24.273438 187.371094 L 24.339844 187.304688 L 24.40625 187.242188 L 24.546875 187.117188 L 24.617188 187.058594 L 24.6875 187.003906 L 24.761719 186.945312 L 24.910156 186.835938 L 24.984375 186.785156 L 25.0625 186.734375 L 25.296875 186.59375 L 25.375 186.550781 L 25.457031 186.507812 L 25.703125 186.390625 L 25.875 186.320312 L 25.957031 186.289062 L 26.046875 186.257812 L 26.132812 186.226562 L 26.21875 186.199219 L 26.304688 186.175781 L 26.484375 186.128906 L 26.570312 186.109375 L 26.75 186.070312 L 26.84375 186.054688 L 26.890625 186.050781 L 26.855469 186.011719 L 26.636719 185.796875 L 26.46875 185.628906 L 26.320312 185.46875 L 26.175781 185.308594 L 26.042969 185.140625 L 25.917969 184.964844 L 25.800781 184.792969 L 25.6875 184.613281 L 25.585938 184.429688 L 25.488281 184.246094 L 25.402344 184.058594 L 25.324219 183.867188 L 25.25 183.671875 L 25.1875 183.476562 L 25.132812 183.28125 L 25.082031 183.082031 L 25.042969 182.882812 L 25.007812 182.679688 L 24.984375 182.480469 L 24.96875 182.277344 L 24.957031 182.074219 L 24.957031 181.871094 L 24.960938 181.667969 L 24.976562 181.464844 L 24.996094 181.261719 L 25.027344 181.058594 L 25.0625 180.859375 L 25.109375 180.660156 L 25.160156 180.464844 L 25.21875 180.265625 L 25.289062 180.074219 L 25.363281 179.882812 L 25.449219 179.691406 L 25.539062 179.507812 L 25.636719 179.324219 L 25.742188 179.144531 L 25.859375 178.964844 L 25.980469 178.792969 L 26.109375 178.625 L 26.246094 178.457031 L 26.390625 178.296875 L 26.542969 178.140625 L 26.703125 177.996094 L 26.863281 177.855469 L 27.027344 177.722656 L 27.195312 177.597656 L 27.371094 177.480469 L 27.546875 177.371094 L 27.726562 177.269531 L 27.90625 177.175781 L 28.09375 177.085938 L 28.28125 177.007812 L 28.46875 176.9375 L 28.664062 176.871094 L 28.855469 176.8125 L 29.054688 176.765625 L 29.25 176.722656 L 29.445312 176.6875 L 29.648438 176.664062 L 29.847656 176.644531 L 30.046875 176.632812 L 30.246094 176.628906 L 30.449219 176.632812 L 30.648438 176.644531 L 30.847656 176.660156 L 31.046875 176.6875 L 31.246094 176.722656 L 31.441406 176.765625 L 31.636719 176.8125 L 31.832031 176.871094 L 32.023438 176.933594 L 32.214844 177.003906 L 32.402344 177.085938 L 32.585938 177.171875 L 32.769531 177.265625 L 32.949219 177.367188 L 33.125 177.476562 L 33.300781 177.59375 L 33.46875 177.71875 L 33.632812 177.851562 L 33.792969 177.988281 L 33.953125 178.136719 L 39.878906 184.0625 L 59.269531 164.667969 L 56.875 162.273438 L 55.027344 160.421875 L 54.304688 159.695312 L 53.359375 158.746094 L 53.210938 158.589844 L 53.066406 158.425781 L 52.933594 158.257812 L 52.808594 158.085938 L 52.691406 157.910156 L 52.578125 157.730469 L 52.476562 157.550781 L 52.378906 157.363281 L 52.292969 157.175781 L 52.214844 156.984375 L 52.140625 156.792969 L 52.078125 156.597656 L 52.023438 156.398438 L 51.972656 156.199219 L 51.933594 156 L 51.898438 155.800781 L 51.875 155.597656 L 51.859375 155.394531 L 51.847656 155.191406 L 51.847656 154.988281 L 51.851562 154.785156 L 51.867188 154.582031 L 51.886719 154.378906 L 51.917969 154.179688 L 51.953125 153.980469 L 52 153.777344 L 52.050781 153.582031 L 52.109375 153.386719 L 52.179688 153.191406 L 52.253906 153 L 52.335938 152.8125 L 52.429688 152.625 L 52.527344 152.441406 L 52.632812 152.261719 L 52.75 152.082031 L 52.871094 151.910156 L 53 151.742188 L 53.136719 151.578125 L 53.28125 151.417969 L 53.433594 151.261719 L 53.59375 151.113281 L 53.753906 150.972656 L 53.917969 150.839844 L 54.085938 150.714844 L 54.261719 150.597656 L 54.4375 150.488281 L 54.617188 150.386719 L 54.796875 150.292969 L 54.984375 150.207031 L 55.171875 150.125 L 55.359375 150.054688 L 55.554688 149.992188 L 55.746094 149.933594 L 55.945312 149.882812 L 56.140625 149.84375 L 56.335938 149.808594 L 56.539062 149.78125 L 56.738281 149.761719 L 56.9375 149.75 L 57.136719 149.746094 L 57.339844 149.75 L 57.539062 149.761719 L 57.738281 149.78125 L 57.9375 149.804688 L 58.136719 149.839844 L 58.332031 149.882812 L 58.527344 149.929688 L 58.722656 149.988281 L 58.914062 150.050781 L 59.105469 150.125 L 59.292969 150.203125 L 59.476562 150.289062 L 59.660156 150.382812 L 59.839844 150.484375 L 60.015625 150.59375 L 60.191406 150.710938 L 60.359375 150.835938 L 60.523438 150.96875 L 60.683594 151.109375 L 60.84375 151.253906 L 61.011719 151.425781 L 61.269531 151.683594 L 61.273438 151.640625 L 61.304688 151.460938 L 61.34375 151.285156 L 61.390625 151.109375 L 61.441406 150.9375 L 61.5 150.765625 L 61.566406 150.597656 L 61.640625 150.429688 L 61.71875 150.261719 L 61.804688 150.101562 L 61.898438 149.941406 L 61.996094 149.785156 L 62.105469 149.632812 L 62.21875 149.480469 L 62.339844 149.332031 L 62.464844 149.191406 L 62.601562 149.050781 L 62.800781 148.863281 L 63.011719 148.6875 L 63.160156 148.578125 L 63.382812 148.425781 L 63.617188 148.285156 L 63.699219 148.242188 L 63.777344 148.203125 L 63.859375 148.160156 L 63.941406 148.121094 L 64.105469 148.050781 L 64.191406 148.015625 L 64.273438 147.984375 L 64.359375 147.953125 L 64.53125 147.898438 L 64.621094 147.871094 L 64.707031 147.847656 L 64.796875 147.828125 L 64.882812 147.804688 L 64.972656 147.785156 L 65.152344 147.753906 L 65.242188 147.742188 L 65.332031 147.726562 L 65.421875 147.71875 L 65.515625 147.710938 L 65.605469 147.703125 L 65.699219 147.699219 L 65.789062 147.695312 L 65.972656 147.695312 Z M 27.46875 187.894531 L 27.414062 187.894531 L 27.359375 187.898438 L 27.304688 187.90625 L 27.25 187.910156 L 27.085938 187.933594 L 27.03125 187.945312 L 26.980469 187.957031 L 26.925781 187.96875 L 26.875 187.980469 L 26.820312 187.996094 L 26.769531 188.007812 L 26.71875 188.027344 L 26.667969 188.042969 L 26.464844 188.121094 L 26.417969 188.144531 L 26.316406 188.191406 L 26.269531 188.21875 L 26.222656 188.242188 L 26.175781 188.269531 L 26.128906 188.300781 L 26.082031 188.328125 L 26.039062 188.359375 L 25.992188 188.390625 L 25.90625 188.453125 L 25.777344 188.558594 L 25.738281 188.59375 L 25.695312 188.628906 L 25.617188 188.707031 L 25.539062 188.789062 L 25.460938 188.875 L 25.390625 188.960938 L 25.324219 189.050781 L 25.261719 189.144531 L 25.203125 189.234375 L 25.148438 189.332031 L 25.09375 189.425781 L 25.050781 189.527344 L 25.003906 189.625 L 24.933594 189.828125 L 24.902344 189.929688 L 24.875 190.035156 L 24.851562 190.140625 L 24.820312 190.351562 L 24.808594 190.457031 L 24.800781 190.667969 L 24.804688 190.773438 L 24.808594 190.882812 L 24.832031 191.09375 L 24.871094 191.304688 L 24.898438 191.40625 L 24.929688 191.511719 L 24.964844 191.613281 L 25.003906 191.714844 L 25.089844 191.910156 L 25.140625 192.007812 L 25.199219 192.101562 L 25.253906 192.195312 L 25.320312 192.289062 L 25.386719 192.378906 L 25.457031 192.464844 L 25.53125 192.550781 L 25.609375 192.632812 L 25.613281 192.632812 L 25.613281 192.636719 L 25.617188 192.636719 L 25.730469 192.753906 L 25.878906 192.898438 L 26.261719 193.28125 L 26.492188 193.515625 L 26.753906 193.773438 L 28.007812 195.027344 L 28.367188 195.390625 L 28.746094 195.765625 L 29.132812 196.15625 L 29.535156 196.558594 L 29.949219 196.96875 L 30.367188 197.390625 L 31.226562 198.25 L 31.664062 198.683594 L 32.539062 199.558594 L 32.972656 199.996094 L 33.40625 200.425781 L 33.832031 200.855469 L 34.253906 201.273438 L 34.664062 201.6875 L 35.066406 202.085938 L 35.832031 202.851562 L 36.191406 203.214844 L 36.539062 203.558594 L 37.449219 204.46875 L 37.707031 204.730469 L 37.941406 204.960938 L 38.144531 205.167969 L 38.324219 205.34375 L 38.46875 205.492188 L 38.585938 205.605469 L 38.667969 205.683594 L 38.839844 205.824219 L 38.933594 205.890625 L 39.023438 205.949219 L 39.117188 206.007812 L 39.210938 206.058594 L 39.308594 206.109375 L 39.40625 206.15625 L 39.609375 206.234375 L 39.710938 206.269531 L 39.8125 206.296875 L 39.917969 206.324219 L 40.019531 206.34375 L 40.125 206.363281 L 40.335938 206.386719 L 40.441406 206.390625 L 40.550781 206.394531 L 40.761719 206.386719 L 40.972656 206.363281 L 41.183594 206.324219 L 41.386719 206.269531 L 41.488281 206.234375 L 41.691406 206.15625 L 41.789062 206.109375 L 41.886719 206.058594 L 41.980469 206.007812 L 42.167969 205.890625 L 42.257812 205.824219 L 42.429688 205.683594 L 42.515625 205.605469 L 42.59375 205.523438 L 42.667969 205.4375 L 42.738281 205.351562 L 42.808594 205.261719 L 42.871094 205.167969 L 42.929688 205.078125 L 42.984375 204.980469 L 43.035156 204.882812 L 43.082031 204.785156 L 43.125 204.6875 L 43.164062 204.585938 L 43.199219 204.484375 L 43.230469 204.382812 L 43.257812 204.277344 L 43.28125 204.171875 L 43.3125 203.960938 L 43.328125 203.75 L 43.332031 203.644531 L 43.328125 203.535156 L 43.324219 203.429688 L 43.3125 203.324219 L 43.28125 203.113281 L 43.257812 203.007812 L 43.230469 202.90625 L 43.203125 202.800781 L 43.167969 202.699219 L 43.128906 202.597656 L 43.085938 202.5 L 43.039062 202.402344 L 42.988281 202.304688 L 42.933594 202.210938 L 42.875 202.117188 L 42.8125 202.023438 L 42.746094 201.9375 L 42.675781 201.847656 L 42.597656 201.761719 L 42.519531 201.679688 L 41.097656 200.257812 L 40.789062 199.953125 L 40.121094 199.285156 L 39.761719 198.921875 L 39.382812 198.546875 L 38.996094 198.15625 L 38.59375 197.753906 L 38.179688 197.34375 L 37.332031 196.496094 L 36.902344 196.0625 L 36.464844 195.628906 L 34.292969 193.457031 L 33.871094 193.039062 L 33.460938 192.625 L 33.058594 192.222656 L 32.667969 191.835938 L 29.976562 189.144531 L 29.796875 188.96875 L 29.652344 188.820312 L 29.460938 188.628906 L 29.417969 188.59375 L 29.378906 188.558594 L 29.25 188.453125 L 29.164062 188.390625 L 29.070312 188.328125 L 29.027344 188.300781 L 28.933594 188.246094 L 28.882812 188.21875 L 28.789062 188.171875 L 28.738281 188.148438 L 28.691406 188.125 L 28.640625 188.101562 L 28.539062 188.0625 L 28.488281 188.046875 L 28.4375 188.027344 L 28.386719 188.011719 L 28.332031 187.996094 L 28.28125 187.980469 L 28.226562 187.96875 L 28.175781 187.957031 L 28.121094 187.945312 L 28.070312 187.9375 L 28.015625 187.925781 L 27.90625 187.910156 L 27.632812 187.890625 L 27.523438 187.890625 Z M 29.933594 178.515625 L 29.796875 178.527344 L 29.664062 178.546875 L 29.53125 178.570312 L 29.398438 178.597656 L 29.269531 178.632812 L 29.140625 178.671875 L 29.015625 178.714844 L 28.773438 178.816406 L 28.65625 178.875 L 28.539062 178.9375 L 28.425781 179.003906 L 28.316406 179.070312 L 28.105469 179.226562 L 28.003906 179.304688 L 27.90625 179.394531 L 27.8125 179.480469 L 27.722656 179.574219 L 27.636719 179.671875 L 27.472656 179.875 L 27.398438 179.980469 L 27.257812 180.199219 L 27.195312 180.316406 L 27.136719 180.433594 L 27.082031 180.550781 L 27.03125 180.675781 L 26.988281 180.800781 L 26.949219 180.925781 L 26.910156 181.054688 L 26.855469 181.320312 L 26.835938 181.453125 L 26.820312 181.589844 L 26.8125 181.726562 L 26.808594 181.867188 L 26.808594 181.9375 L 26.8125 182.003906 L 26.8125 182.074219 L 26.816406 182.140625 L 26.839844 182.339844 L 26.847656 182.410156 L 26.859375 182.472656 L 26.871094 182.542969 L 26.886719 182.605469 L 26.917969 182.738281 L 26.933594 182.800781 L 26.953125 182.867188 L 26.972656 182.929688 L 27.019531 183.054688 L 27.039062 183.121094 L 27.066406 183.179688 L 27.148438 183.367188 L 27.273438 183.601562 L 27.308594 183.660156 L 27.347656 183.714844 L 27.382812 183.773438 L 27.5 183.9375 L 27.542969 183.992188 L 27.671875 184.144531 L 27.71875 184.195312 L 27.765625 184.242188 L 27.8125 184.292969 L 46.929688 203.40625 L 47.03125 203.503906 L 47.25 203.675781 L 47.359375 203.753906 L 47.472656 203.828125 L 47.589844 203.898438 L 47.707031 203.960938 L 47.828125 204.019531 L 47.949219 204.074219 L 48.074219 204.125 L 48.199219 204.167969 L 48.324219 204.207031 L 48.453125 204.242188 L 48.578125 204.269531 L 48.707031 204.292969 L 48.835938 204.3125 L 48.96875 204.324219 L 49.097656 204.335938 L 49.226562 204.339844 L 49.359375 204.339844 L 49.488281 204.332031 L 49.621094 204.320312 L 49.75 204.304688 L 49.878906 204.285156 L 50.007812 204.257812 L 50.132812 204.226562 L 50.261719 204.191406 L 50.386719 204.148438 L 50.507812 204.105469 L 50.632812 204.054688 L 50.753906 204 L 50.871094 203.9375 L 50.988281 203.871094 L 51.101562 203.800781 L 51.214844 203.726562 L 51.324219 203.648438 L 51.429688 203.5625 L 51.535156 203.472656 L 51.636719 203.375 L 51.734375 203.277344 L 51.824219 203.175781 L 51.910156 203.074219 L 51.992188 202.96875 L 52.070312 202.863281 L 52.140625 202.753906 L 52.210938 202.640625 L 52.273438 202.527344 L 52.332031 202.414062 L 52.433594 202.179688 L 52.476562 202.058594 L 52.515625 201.9375 L 52.550781 201.816406 L 52.582031 201.691406 L 52.609375 201.570312 L 52.628906 201.445312 L 52.644531 201.320312 L 52.65625 201.195312 L 52.664062 201.066406 L 52.667969 200.941406 L 52.660156 200.691406 L 52.648438 200.5625 L 52.609375 200.3125 L 52.582031 200.191406 L 52.554688 200.066406 L 52.519531 199.945312 L 52.480469 199.824219 L 52.4375 199.703125 L 52.386719 199.585938 L 52.332031 199.46875 L 52.277344 199.355469 L 52.144531 199.128906 L 52.074219 199.019531 L 51.917969 198.808594 L 51.832031 198.707031 L 51.738281 198.605469 L 32.617188 179.480469 L 32.566406 179.433594 L 32.519531 179.390625 L 32.46875 179.34375 L 32.417969 179.300781 L 32.363281 179.257812 L 32.3125 179.21875 L 32.257812 179.179688 L 32.207031 179.136719 L 32.152344 179.101562 L 32.09375 179.0625 L 31.984375 178.992188 L 31.925781 178.957031 L 31.75 178.863281 L 31.632812 178.808594 L 31.570312 178.78125 L 31.511719 178.757812 L 31.449219 178.730469 L 31.386719 178.707031 L 31.199219 178.648438 L 31.132812 178.628906 L 31.070312 178.613281 L 31.003906 178.59375 L 30.941406 178.582031 L 30.808594 178.558594 L 30.746094 178.546875 L 30.679688 178.535156 L 30.546875 178.519531 L 30.414062 178.511719 L 30.34375 178.507812 L 30.070312 178.507812 Z M 45.820312 190.003906 L 65.207031 170.617188 L 60.609375 166.011719 L 41.21875 185.402344 Z M 56.824219 151.617188 L 56.6875 151.628906 L 56.550781 151.648438 L 56.417969 151.671875 L 56.285156 151.703125 L 56.15625 151.738281 L 56.03125 151.777344 L 55.902344 151.820312 L 55.660156 151.921875 L 55.542969 151.980469 L 55.425781 152.042969 L 55.3125 152.109375 L 55.203125 152.179688 L 54.992188 152.335938 L 54.890625 152.417969 L 54.796875 152.503906 L 54.703125 152.59375 L 54.613281 152.6875 L 54.523438 152.785156 L 54.441406 152.886719 L 54.363281 152.988281 L 54.285156 153.09375 L 54.214844 153.207031 L 54.148438 153.316406 L 54.085938 153.433594 L 54.027344 153.550781 L 53.972656 153.671875 L 53.921875 153.792969 L 53.878906 153.917969 L 53.839844 154.046875 L 53.804688 154.175781 L 53.773438 154.308594 L 53.75 154.441406 L 53.730469 154.574219 L 53.714844 154.710938 L 53.707031 154.851562 L 53.703125 154.988281 L 53.703125 155.058594 L 53.707031 155.125 L 53.707031 155.195312 L 53.714844 155.261719 L 53.71875 155.328125 L 53.734375 155.460938 L 53.769531 155.660156 L 53.78125 155.722656 L 53.8125 155.855469 L 53.832031 155.917969 L 53.851562 155.984375 L 53.890625 156.109375 L 53.960938 156.296875 L 53.988281 156.359375 L 54.015625 156.417969 L 54.042969 156.480469 L 54.136719 156.65625 L 54.171875 156.714844 L 54.203125 156.769531 L 54.242188 156.828125 L 54.277344 156.882812 L 54.316406 156.9375 L 54.355469 156.996094 L 54.394531 157.046875 L 54.433594 157.101562 L 54.519531 157.203125 L 54.566406 157.253906 L 54.609375 157.304688 L 54.65625 157.355469 L 54.871094 157.570312 L 55.089844 157.785156 L 55.347656 158.046875 L 59.890625 162.589844 L 60.480469 163.183594 L 61.089844 163.789062 L 61.707031 164.410156 L 62.335938 165.039062 L 62.972656 165.679688 L 63.617188 166.320312 L 64.90625 167.609375 L 65.550781 168.25 L 66.1875 168.890625 L 66.816406 169.519531 L 67.433594 170.140625 L 68.042969 170.746094 L 68.632812 171.339844 L 73.175781 175.882812 L 73.433594 176.144531 L 73.652344 176.359375 L 73.820312 176.527344 L 73.921875 176.621094 L 74.027344 176.710938 L 74.140625 176.792969 L 74.25 176.875 L 74.367188 176.945312 L 74.480469 177.015625 L 74.601562 177.078125 L 74.71875 177.136719 L 74.84375 177.191406 L 74.964844 177.242188 L 75.089844 177.285156 L 75.214844 177.324219 L 75.34375 177.355469 L 75.472656 177.382812 L 75.601562 177.40625 L 75.730469 177.425781 L 75.859375 177.441406 L 75.988281 177.449219 L 76.121094 177.453125 L 76.25 177.453125 L 76.382812 177.445312 L 76.511719 177.433594 L 76.640625 177.417969 L 76.898438 177.371094 L 77.027344 177.339844 L 77.152344 177.304688 L 77.277344 177.261719 L 77.402344 177.214844 L 77.523438 177.164062 L 77.644531 177.109375 L 77.878906 176.984375 L 77.992188 176.914062 L 78.105469 176.835938 L 78.214844 176.757812 L 78.320312 176.671875 L 78.425781 176.582031 L 78.527344 176.488281 L 78.625 176.386719 L 78.714844 176.289062 L 78.800781 176.183594 L 78.882812 176.078125 L 78.960938 175.972656 L 79.03125 175.863281 L 79.097656 175.75 L 79.160156 175.636719 L 79.21875 175.523438 L 79.273438 175.40625 L 79.320312 175.285156 L 79.363281 175.167969 L 79.40625 175.046875 L 79.441406 174.925781 L 79.496094 174.675781 L 79.515625 174.550781 L 79.53125 174.425781 L 79.542969 174.300781 L 79.550781 174.175781 L 79.554688 174.050781 L 79.550781 173.921875 L 79.542969 173.796875 L 79.53125 173.671875 L 79.515625 173.546875 L 79.46875 173.296875 L 79.4375 173.175781 L 79.402344 173.054688 L 79.363281 172.933594 L 79.320312 172.8125 L 79.269531 172.695312 L 79.160156 172.460938 L 79.09375 172.347656 L 79.027344 172.238281 L 78.957031 172.128906 L 78.878906 172.023438 L 78.796875 171.917969 L 78.710938 171.816406 L 78.621094 171.714844 L 59.457031 152.550781 L 59.410156 152.507812 L 59.359375 152.460938 L 59.257812 152.375 L 59.203125 152.332031 L 59.152344 152.292969 L 58.988281 152.175781 L 58.933594 152.140625 L 58.875 152.105469 L 58.820312 152.070312 L 58.761719 152.039062 L 58.703125 152.003906 L 58.644531 151.972656 L 58.585938 151.945312 L 58.523438 151.917969 L 58.464844 151.890625 L 58.402344 151.863281 L 58.34375 151.839844 L 58.277344 151.816406 L 58.21875 151.792969 L 58.152344 151.773438 L 58.089844 151.75 L 58.027344 151.734375 L 57.964844 151.714844 L 57.832031 151.683594 L 57.765625 151.671875 L 57.703125 151.660156 L 57.570312 151.636719 L 57.4375 151.621094 L 57.371094 151.617188 L 57.304688 151.609375 L 57.238281 151.609375 L 57.167969 151.605469 L 57.101562 151.605469 L 56.960938 151.609375 Z M 65.773438 149.589844 L 65.714844 149.59375 L 65.664062 149.597656 L 65.605469 149.601562 L 65.554688 149.609375 L 65.390625 149.632812 L 65.339844 149.644531 L 65.285156 149.652344 L 65.230469 149.664062 L 65.179688 149.679688 L 65.125 149.695312 L 65.074219 149.707031 L 65.023438 149.726562 L 64.972656 149.742188 L 64.769531 149.820312 L 64.722656 149.84375 L 64.671875 149.867188 L 64.625 149.890625 L 64.574219 149.917969 L 64.527344 149.941406 L 64.480469 149.96875 L 64.433594 150 L 64.386719 150.027344 L 64.34375 150.054688 L 64.296875 150.085938 L 64.253906 150.121094 L 64.167969 150.183594 L 64.039062 150.289062 L 63.960938 150.367188 L 63.921875 150.402344 L 63.84375 150.488281 L 63.765625 150.570312 L 63.695312 150.660156 L 63.628906 150.746094 L 63.566406 150.839844 L 63.507812 150.933594 L 63.453125 151.027344 L 63.402344 151.125 L 63.355469 151.222656 L 63.3125 151.320312 L 63.273438 151.421875 L 63.238281 151.523438 L 63.207031 151.625 L 63.160156 151.835938 L 63.140625 151.941406 L 63.117188 152.152344 L 63.109375 152.363281 L 63.113281 152.472656 L 63.117188 152.578125 L 63.140625 152.789062 L 63.160156 152.894531 L 63.183594 153 L 63.207031 153.101562 L 63.238281 153.207031 L 63.273438 153.308594 L 63.3125 153.40625 L 63.355469 153.507812 L 63.402344 153.605469 L 63.453125 153.703125 L 63.507812 153.796875 L 63.566406 153.890625 L 63.628906 153.980469 L 63.695312 154.070312 L 63.765625 154.15625 L 63.84375 154.242188 L 63.921875 154.324219 L 76.898438 167.300781 L 77.0625 167.457031 L 77.152344 167.527344 L 77.242188 167.59375 L 77.332031 167.65625 L 77.425781 167.714844 L 77.523438 167.769531 L 77.617188 167.824219 L 77.71875 167.867188 L 77.816406 167.910156 L 77.917969 167.949219 L 78.019531 167.984375 L 78.125 168.015625 L 78.226562 168.042969 L 78.332031 168.066406 L 78.542969 168.097656 L 78.753906 168.113281 L 78.96875 168.113281 L 79.078125 168.105469 L 79.183594 168.097656 L 79.394531 168.066406 L 79.496094 168.042969 L 79.601562 168.015625 L 79.703125 167.984375 L 79.808594 167.949219 L 79.910156 167.910156 L 80.105469 167.824219 L 80.203125 167.769531 L 80.296875 167.714844 L 80.390625 167.65625 L 80.484375 167.59375 L 80.574219 167.527344 L 80.660156 167.457031 L 80.746094 167.378906 L 80.828125 167.300781 L 80.90625 167.21875 L 80.984375 167.132812 L 81.054688 167.046875 L 81.121094 166.957031 L 81.183594 166.867188 L 81.242188 166.769531 L 81.296875 166.675781 L 81.347656 166.578125 L 81.394531 166.480469 L 81.4375 166.382812 L 81.476562 166.28125 L 81.511719 166.179688 L 81.542969 166.074219 L 81.570312 165.972656 L 81.609375 165.761719 L 81.632812 165.550781 L 81.640625 165.441406 L 81.640625 165.230469 L 81.632812 165.121094 L 81.609375 164.910156 L 81.570312 164.699219 L 81.542969 164.597656 L 81.511719 164.492188 L 81.476562 164.390625 L 81.4375 164.289062 L 81.394531 164.191406 L 81.347656 164.09375 L 81.296875 163.996094 L 81.242188 163.898438 L 81.183594 163.804688 L 81.121094 163.714844 L 81.054688 163.625 L 80.984375 163.539062 L 80.90625 163.453125 L 80.828125 163.371094 L 80.464844 163.007812 L 80.339844 162.886719 L 80.203125 162.75 L 80.054688 162.597656 L 79.328125 161.871094 L 79.113281 161.660156 L 78.886719 161.433594 L 78.648438 161.191406 L 76.605469 159.148438 L 76.261719 158.808594 L 75.535156 158.082031 L 75.148438 157.699219 L 74.753906 157.300781 L 74.347656 156.894531 L 73.921875 156.472656 L 73.488281 156.039062 L 73.042969 155.589844 L 72.582031 155.128906 L 72.105469 154.65625 L 70.082031 152.632812 L 69.546875 152.09375 L 68.992188 151.546875 L 68.429688 150.980469 L 67.851562 150.402344 L 67.8125 150.367188 L 67.769531 150.328125 L 67.730469 150.289062 L 67.6875 150.253906 L 67.648438 150.21875 L 67.605469 150.183594 L 67.5625 150.152344 L 67.515625 150.117188 L 67.472656 150.085938 L 67.425781 150.054688 L 67.382812 150.027344 L 67.335938 149.996094 L 67.242188 149.941406 L 67.191406 149.914062 L 67.097656 149.867188 L 66.996094 149.820312 L 66.949219 149.800781 L 66.796875 149.742188 L 66.742188 149.726562 L 66.691406 149.707031 L 66.640625 149.691406 L 66.585938 149.679688 L 66.535156 149.664062 L 66.480469 149.652344 L 66.429688 149.644531 L 66.375 149.632812 L 66.15625 149.601562 L 65.992188 149.589844 Z M 65.773438 149.589844 " clip-rule="nonzero"/></clipPath><linearGradient x1="250.03999" gradientTransform="matrix(0.128817, 0, 0, 0.128817, 21.013445, 145.800047)" y1="14.710012" x2="250.03999" gradientUnits="userSpaceOnUse" y2="485.290014" id="a5fe051808"><stop stop-opacity="1" stop-color="rgb(17.298889%, 92.498779%, 100%)" offset="0"/><stop stop-opacity="1" stop-color="rgb(17.611694%, 92.3172%, 100%)" offset="0.00390625"/><stop stop-opacity="1" stop-color="rgb(17.926025%, 92.13562%, 100%)" offset="0.0078125"/><stop stop-opacity="1" stop-color="rgb(18.240356%, 91.952515%, 100%)" offset="0.0117187"/><stop stop-opacity="1" stop-color="rgb(18.554688%, 91.770935%, 100%)" offset="0.015625"/><stop stop-opacity="1" stop-color="rgb(18.867493%, 91.589355%, 100%)" offset="0.0195312"/><stop stop-opacity="1" stop-color="rgb(19.181824%, 91.407776%, 100%)" offset="0.0234375"/><stop stop-opacity="1" stop-color="rgb(19.494629%, 91.22467%, 100%)" offset="0.0273438"/><stop stop-opacity="1" stop-color="rgb(19.80896%, 91.043091%, 100%)" offset="0.03125"/><stop stop-opacity="1" stop-color="rgb(20.121765%, 90.859985%, 100%)" offset="0.0351562"/><stop stop-opacity="1" stop-color="rgb(20.436096%, 90.678406%, 100%)" offset="0.0390625"/><stop stop-opacity="1" stop-color="rgb(20.748901%, 90.496826%, 100%)" offset="0.0429688"/><stop stop-opacity="1" stop-color="rgb(21.063232%, 90.315247%, 100%)" offset="0.046875"/><stop stop-opacity="1" stop-color="rgb(21.376038%, 90.132141%, 100%)" offset="0.0507813"/><stop stop-opacity="1" stop-color="rgb(21.690369%, 89.950562%, 100%)" offset="0.0546875"/><stop stop-opacity="1" stop-color="rgb(22.003174%, 89.768982%, 100%)" offset="0.0585938"/><stop stop-opacity="1" stop-color="rgb(22.317505%, 89.587402%, 100%)" offset="0.0625"/><stop stop-opacity="1" stop-color="rgb(22.63031%, 89.404297%, 100%)" offset="0.0664063"/><stop stop-opacity="1" stop-color="rgb(22.944641%, 89.222717%, 100%)" offset="0.0703125"/><stop stop-opacity="1" stop-color="rgb(23.258972%, 89.039612%, 100%)" offset="0.0742188"/><stop stop-opacity="1" stop-color="rgb(23.573303%, 88.858032%, 100%)" offset="0.078125"/><stop stop-opacity="1" stop-color="rgb(23.886108%, 88.676453%, 100%)" offset="0.0820312"/><stop stop-opacity="1" stop-color="rgb(24.200439%, 88.494873%, 100%)" offset="0.0859375"/><stop stop-opacity="1" stop-color="rgb(24.513245%, 88.311768%, 100%)" offset="0.0898438"/><stop stop-opacity="1" stop-color="rgb(24.827576%, 88.130188%, 100%)" offset="0.09375"/><stop stop-opacity="1" stop-color="rgb(25.140381%, 87.948608%, 100%)" offset="0.0976562"/><stop stop-opacity="1" stop-color="rgb(25.454712%, 87.767029%, 100%)" offset="0.101562"/><stop stop-opacity="1" stop-color="rgb(25.767517%, 87.583923%, 100%)" offset="0.105469"/><stop stop-opacity="1" stop-color="rgb(26.081848%, 87.402344%, 100%)" offset="0.109375"/><stop stop-opacity="1" stop-color="rgb(26.394653%, 87.219238%, 100%)" offset="0.113281"/><stop stop-opacity="1" stop-color="rgb(26.708984%, 87.037659%, 100%)" offset="0.117188"/><stop stop-opacity="1" stop-color="rgb(27.02179%, 86.856079%, 100%)" offset="0.121094"/><stop stop-opacity="1" stop-color="rgb(27.336121%, 86.6745%, 100%)" offset="0.125"/><stop stop-opacity="1" stop-color="rgb(27.650452%, 86.491394%, 100%)" offset="0.128906"/><stop stop-opacity="1" stop-color="rgb(27.964783%, 86.309814%, 100%)" offset="0.132812"/><stop stop-opacity="1" stop-color="rgb(28.277588%, 86.128235%, 100%)" offset="0.136719"/><stop stop-opacity="1" stop-color="rgb(28.591919%, 85.946655%, 100%)" offset="0.140625"/><stop stop-opacity="1" stop-color="rgb(28.904724%, 85.76355%, 100%)" offset="0.144531"/><stop stop-opacity="1" stop-color="rgb(29.219055%, 85.58197%, 100%)" offset="0.148438"/><stop stop-opacity="1" stop-color="rgb(29.53186%, 85.398865%, 100%)" offset="0.152344"/><stop stop-opacity="1" stop-color="rgb(29.846191%, 85.217285%, 100%)" offset="0.15625"/><stop stop-opacity="1" stop-color="rgb(30.158997%, 85.035706%, 100%)" offset="0.160156"/><stop stop-opacity="1" stop-color="rgb(30.473328%, 84.854126%, 100%)" offset="0.164062"/><stop stop-opacity="1" stop-color="rgb(30.786133%, 84.671021%, 100%)" offset="0.167969"/><stop stop-opacity="1" stop-color="rgb(31.100464%, 84.489441%, 100%)" offset="0.171875"/><stop stop-opacity="1" stop-color="rgb(31.413269%, 84.307861%, 100%)" offset="0.175781"/><stop stop-opacity="1" stop-color="rgb(31.7276%, 84.126282%, 100%)" offset="0.179687"/><stop stop-opacity="1" stop-color="rgb(32.040405%, 83.943176%, 100%)" offset="0.183594"/><stop stop-opacity="1" stop-color="rgb(32.354736%, 83.761597%, 100%)" offset="0.1875"/><stop stop-opacity="1" stop-color="rgb(32.669067%, 83.578491%, 100%)" offset="0.191406"/><stop stop-opacity="1" stop-color="rgb(32.983398%, 83.396912%, 100%)" offset="0.195312"/><stop stop-opacity="1" stop-color="rgb(33.296204%, 83.215332%, 100%)" offset="0.199219"/><stop stop-opacity="1" stop-color="rgb(33.610535%, 83.033752%, 100%)" offset="0.203125"/><stop stop-opacity="1" stop-color="rgb(33.92334%, 82.850647%, 100%)" offset="0.207031"/><stop stop-opacity="1" stop-color="rgb(34.237671%, 82.669067%, 100%)" offset="0.210938"/><stop stop-opacity="1" stop-color="rgb(34.550476%, 82.487488%, 100%)" offset="0.214844"/><stop stop-opacity="1" stop-color="rgb(34.864807%, 82.305908%, 100%)" offset="0.21875"/><stop stop-opacity="1" stop-color="rgb(35.177612%, 82.122803%, 100%)" offset="0.222656"/><stop stop-opacity="1" stop-color="rgb(35.491943%, 81.941223%, 100%)" offset="0.226562"/><stop stop-opacity="1" stop-color="rgb(35.804749%, 81.759644%, 100%)" offset="0.230469"/><stop stop-opacity="1" stop-color="rgb(36.11908%, 81.578064%, 100%)" offset="0.234375"/><stop stop-opacity="1" stop-color="rgb(36.431885%, 81.394958%, 100%)" offset="0.238281"/><stop stop-opacity="1" stop-color="rgb(36.746216%, 81.213379%, 100%)" offset="0.242188"/><stop stop-opacity="1" stop-color="rgb(37.060547%, 81.030273%, 100%)" offset="0.246094"/><stop stop-opacity="1" stop-color="rgb(37.374878%, 80.848694%, 100%)" offset="0.25"/><stop stop-opacity="1" stop-color="rgb(37.687683%, 80.667114%, 100%)" offset="0.253906"/><stop stop-opacity="1" stop-color="rgb(38.002014%, 80.485535%, 100%)" offset="0.257812"/><stop stop-opacity="1" stop-color="rgb(38.314819%, 80.302429%, 100%)" offset="0.261719"/><stop stop-opacity="1" stop-color="rgb(38.62915%, 80.12085%, 100%)" offset="0.265625"/><stop stop-opacity="1" stop-color="rgb(38.941956%, 79.93927%, 100%)" offset="0.269531"/><stop stop-opacity="1" stop-color="rgb(39.256287%, 79.75769%, 100%)" offset="0.273438"/><stop stop-opacity="1" stop-color="rgb(39.569092%, 79.574585%, 100%)" offset="0.277344"/><stop stop-opacity="1" stop-color="rgb(39.883423%, 79.393005%, 100%)" offset="0.28125"/><stop stop-opacity="1" stop-color="rgb(40.196228%, 79.2099%, 100%)" offset="0.285156"/><stop stop-opacity="1" stop-color="rgb(40.510559%, 79.02832%, 100%)" offset="0.289062"/><stop stop-opacity="1" stop-color="rgb(40.823364%, 78.846741%, 100%)" offset="0.292969"/><stop stop-opacity="1" stop-color="rgb(41.137695%, 78.665161%, 100%)" offset="0.296875"/><stop stop-opacity="1" stop-color="rgb(41.452026%, 78.482056%, 100%)" offset="0.300781"/><stop stop-opacity="1" stop-color="rgb(41.766357%, 78.300476%, 100%)" offset="0.304688"/><stop stop-opacity="1" stop-color="rgb(42.079163%, 78.118896%, 100%)" offset="0.308594"/><stop stop-opacity="1" stop-color="rgb(42.393494%, 77.937317%, 100%)" offset="0.3125"/><stop stop-opacity="1" stop-color="rgb(42.706299%, 77.754211%, 100%)" offset="0.316406"/><stop stop-opacity="1" stop-color="rgb(43.02063%, 77.572632%, 100%)" offset="0.320313"/><stop stop-opacity="1" stop-color="rgb(43.333435%, 77.389526%, 100%)" offset="0.324219"/><stop stop-opacity="1" stop-color="rgb(43.647766%, 77.207947%, 100%)" offset="0.328125"/><stop stop-opacity="1" stop-color="rgb(43.960571%, 77.026367%, 100%)" offset="0.332031"/><stop stop-opacity="1" stop-color="rgb(44.274902%, 76.844788%, 100%)" offset="0.335938"/><stop stop-opacity="1" stop-color="rgb(44.587708%, 76.661682%, 100%)" offset="0.339844"/><stop stop-opacity="1" stop-color="rgb(44.902039%, 76.480103%, 100%)" offset="0.34375"/><stop stop-opacity="1" stop-color="rgb(45.214844%, 76.298523%, 100%)" offset="0.347656"/><stop stop-opacity="1" stop-color="rgb(45.529175%, 76.116943%, 100%)" offset="0.351562"/><stop stop-opacity="1" stop-color="rgb(45.84198%, 75.933838%, 100%)" offset="0.355469"/><stop stop-opacity="1" stop-color="rgb(46.156311%, 75.752258%, 100%)" offset="0.359375"/><stop stop-opacity="1" stop-color="rgb(46.470642%, 75.569153%, 100%)" offset="0.363281"/><stop stop-opacity="1" stop-color="rgb(46.784973%, 75.387573%, 100%)" offset="0.367188"/><stop stop-opacity="1" stop-color="rgb(47.097778%, 75.205994%, 100%)" offset="0.371094"/><stop stop-opacity="1" stop-color="rgb(47.412109%, 75.024414%, 100%)" offset="0.375"/><stop stop-opacity="1" stop-color="rgb(47.724915%, 74.841309%, 100%)" offset="0.378906"/><stop stop-opacity="1" stop-color="rgb(48.039246%, 74.659729%, 100%)" offset="0.382812"/><stop stop-opacity="1" stop-color="rgb(48.352051%, 74.478149%, 100%)" offset="0.386719"/><stop stop-opacity="1" stop-color="rgb(48.666382%, 74.29657%, 100%)" offset="0.390625"/><stop stop-opacity="1" stop-color="rgb(48.979187%, 74.113464%, 100%)" offset="0.394531"/><stop stop-opacity="1" stop-color="rgb(49.293518%, 73.931885%, 100%)" offset="0.398438"/><stop stop-opacity="1" stop-color="rgb(49.606323%, 73.750305%, 100%)" offset="0.402344"/><stop stop-opacity="1" stop-color="rgb(49.920654%, 73.568726%, 100%)" offset="0.40625"/><stop stop-opacity="1" stop-color="rgb(50.233459%, 73.38562%, 100%)" offset="0.410156"/><stop stop-opacity="1" stop-color="rgb(50.547791%, 73.204041%, 100%)" offset="0.414063"/><stop stop-opacity="1" stop-color="rgb(50.862122%, 73.020935%, 100%)" offset="0.417969"/><stop stop-opacity="1" stop-color="rgb(51.176453%, 72.839355%, 100%)" offset="0.421875"/><stop stop-opacity="1" stop-color="rgb(51.489258%, 72.657776%, 100%)" offset="0.425781"/><stop stop-opacity="1" stop-color="rgb(51.803589%, 72.476196%, 100%)" offset="0.429688"/><stop stop-opacity="1" stop-color="rgb(52.116394%, 72.293091%, 100%)" offset="0.433594"/><stop stop-opacity="1" stop-color="rgb(52.430725%, 72.111511%, 100%)" offset="0.4375"/><stop stop-opacity="1" stop-color="rgb(52.74353%, 71.929932%, 100%)" offset="0.441406"/><stop stop-opacity="1" stop-color="rgb(53.057861%, 71.748352%, 100%)" offset="0.445312"/><stop stop-opacity="1" stop-color="rgb(53.370667%, 71.565247%, 100%)" offset="0.449219"/><stop stop-opacity="1" stop-color="rgb(53.684998%, 71.383667%, 100%)" offset="0.453125"/><stop stop-opacity="1" stop-color="rgb(53.997803%, 71.200562%, 100%)" offset="0.457031"/><stop stop-opacity="1" stop-color="rgb(54.312134%, 71.018982%, 100%)" offset="0.460938"/><stop stop-opacity="1" stop-color="rgb(54.624939%, 70.837402%, 100%)" offset="0.464844"/><stop stop-opacity="1" stop-color="rgb(54.93927%, 70.655823%, 100%)" offset="0.46875"/><stop stop-opacity="1" stop-color="rgb(55.253601%, 70.472717%, 100%)" offset="0.472656"/><stop stop-opacity="1" stop-color="rgb(55.567932%, 70.291138%, 100%)" offset="0.476562"/><stop stop-opacity="1" stop-color="rgb(55.880737%, 70.109558%, 100%)" offset="0.480469"/><stop stop-opacity="1" stop-color="rgb(56.195068%, 69.927979%, 100%)" offset="0.484375"/><stop stop-opacity="1" stop-color="rgb(56.507874%, 69.744873%, 100%)" offset="0.488281"/><stop stop-opacity="1" stop-color="rgb(56.822205%, 69.563293%, 100%)" offset="0.492188"/><stop stop-opacity="1" stop-color="rgb(57.13501%, 69.380188%, 100%)" offset="0.496094"/><stop stop-opacity="1" stop-color="rgb(57.449341%, 69.198608%, 100%)" offset="0.5"/><stop stop-opacity="1" stop-color="rgb(57.762146%, 69.017029%, 100%)" offset="0.503906"/><stop stop-opacity="1" stop-color="rgb(58.076477%, 68.835449%, 100%)" offset="0.507813"/><stop stop-opacity="1" stop-color="rgb(58.389282%, 68.652344%, 100%)" offset="0.511719"/><stop stop-opacity="1" stop-color="rgb(58.703613%, 68.470764%, 100%)" offset="0.515625"/><stop stop-opacity="1" stop-color="rgb(59.016418%, 68.289185%, 100%)" offset="0.519531"/><stop stop-opacity="1" stop-color="rgb(59.33075%, 68.107605%, 100%)" offset="0.523438"/><stop stop-opacity="1" stop-color="rgb(59.643555%, 67.9245%, 100%)" offset="0.527344"/><stop stop-opacity="1" stop-color="rgb(59.957886%, 67.74292%, 100%)" offset="0.53125"/><stop stop-opacity="1" stop-color="rgb(60.272217%, 67.559814%, 100%)" offset="0.535156"/><stop stop-opacity="1" stop-color="rgb(60.586548%, 67.378235%, 100%)" offset="0.539063"/><stop stop-opacity="1" stop-color="rgb(60.899353%, 67.196655%, 100%)" offset="0.542969"/><stop stop-opacity="1" stop-color="rgb(61.213684%, 67.015076%, 100%)" offset="0.546875"/><stop stop-opacity="1" stop-color="rgb(61.526489%, 66.83197%, 100%)" offset="0.550781"/><stop stop-opacity="1" stop-color="rgb(61.84082%, 66.650391%, 100%)" offset="0.554688"/><stop stop-opacity="1" stop-color="rgb(62.153625%, 66.468811%, 100%)" offset="0.558594"/><stop stop-opacity="1" stop-color="rgb(62.467957%, 66.287231%, 100%)" offset="0.5625"/><stop stop-opacity="1" stop-color="rgb(62.780762%, 66.104126%, 100%)" offset="0.566406"/><stop stop-opacity="1" stop-color="rgb(63.095093%, 65.922546%, 100%)" offset="0.570312"/><stop stop-opacity="1" stop-color="rgb(63.407898%, 65.739441%, 100%)" offset="0.574219"/><stop stop-opacity="1" stop-color="rgb(63.722229%, 65.557861%, 100%)" offset="0.578125"/><stop stop-opacity="1" stop-color="rgb(64.035034%, 65.376282%, 100%)" offset="0.582031"/><stop stop-opacity="1" stop-color="rgb(64.349365%, 65.194702%, 100%)" offset="0.585937"/><stop stop-opacity="1" stop-color="rgb(64.663696%, 65.011597%, 100%)" offset="0.589844"/><stop stop-opacity="1" stop-color="rgb(64.978027%, 64.830017%, 100%)" offset="0.59375"/><stop stop-opacity="1" stop-color="rgb(65.290833%, 64.648438%, 100%)" offset="0.597656"/><stop stop-opacity="1" stop-color="rgb(65.605164%, 64.466858%, 100%)" offset="0.601562"/><stop stop-opacity="1" stop-color="rgb(65.917969%, 64.283752%, 100%)" offset="0.605469"/><stop stop-opacity="1" stop-color="rgb(66.2323%, 64.102173%, 100%)" offset="0.609375"/><stop stop-opacity="1" stop-color="rgb(66.545105%, 63.920593%, 100%)" offset="0.613281"/><stop stop-opacity="1" stop-color="rgb(66.859436%, 63.739014%, 100%)" offset="0.617188"/><stop stop-opacity="1" stop-color="rgb(67.172241%, 63.555908%, 100%)" offset="0.621094"/><stop stop-opacity="1" stop-color="rgb(67.486572%, 63.374329%, 100%)" offset="0.625"/><stop stop-opacity="1" stop-color="rgb(67.799377%, 63.191223%, 100%)" offset="0.628906"/><stop stop-opacity="1" stop-color="rgb(68.113708%, 63.009644%, 100%)" offset="0.632812"/><stop stop-opacity="1" stop-color="rgb(68.426514%, 62.828064%, 100%)" offset="0.636719"/><stop stop-opacity="1" stop-color="rgb(68.740845%, 62.646484%, 100%)" offset="0.640625"/><stop stop-opacity="1" stop-color="rgb(69.055176%, 62.463379%, 100%)" offset="0.644531"/><stop stop-opacity="1" stop-color="rgb(69.369507%, 62.281799%, 100%)" offset="0.648438"/><stop stop-opacity="1" stop-color="rgb(69.682312%, 62.10022%, 100%)" offset="0.652344"/><stop stop-opacity="1" stop-color="rgb(69.996643%, 61.91864%, 100%)" offset="0.65625"/><stop stop-opacity="1" stop-color="rgb(70.309448%, 61.735535%, 100%)" offset="0.660156"/><stop stop-opacity="1" stop-color="rgb(70.623779%, 61.553955%, 100%)" offset="0.664062"/><stop stop-opacity="1" stop-color="rgb(70.936584%, 61.37085%, 100%)" offset="0.667969"/><stop stop-opacity="1" stop-color="rgb(71.250916%, 61.18927%, 100%)" offset="0.671875"/><stop stop-opacity="1" stop-color="rgb(71.563721%, 61.00769%, 100%)" offset="0.675781"/><stop stop-opacity="1" stop-color="rgb(71.878052%, 60.826111%, 100%)" offset="0.679688"/><stop stop-opacity="1" stop-color="rgb(72.190857%, 60.643005%, 100%)" offset="0.683594"/><stop stop-opacity="1" stop-color="rgb(72.505188%, 60.461426%, 100%)" offset="0.6875"/><stop stop-opacity="1" stop-color="rgb(72.817993%, 60.279846%, 100%)" offset="0.691406"/><stop stop-opacity="1" stop-color="rgb(73.132324%, 60.098267%, 100%)" offset="0.695313"/><stop stop-opacity="1" stop-color="rgb(73.445129%, 59.915161%, 100%)" offset="0.699219"/><stop stop-opacity="1" stop-color="rgb(73.75946%, 59.733582%, 100%)" offset="0.703125"/><stop stop-opacity="1" stop-color="rgb(74.073792%, 59.550476%, 100%)" offset="0.707031"/><stop stop-opacity="1" stop-color="rgb(74.388123%, 59.368896%, 100%)" offset="0.710938"/><stop stop-opacity="1" stop-color="rgb(74.700928%, 59.187317%, 100%)" offset="0.714844"/><stop stop-opacity="1" stop-color="rgb(75.015259%, 59.005737%, 100%)" offset="0.71875"/><stop stop-opacity="1" stop-color="rgb(75.328064%, 58.822632%, 100%)" offset="0.722656"/><stop stop-opacity="1" stop-color="rgb(75.642395%, 58.641052%, 100%)" offset="0.726563"/><stop stop-opacity="1" stop-color="rgb(75.9552%, 58.459473%, 100%)" offset="0.730469"/><stop stop-opacity="1" stop-color="rgb(76.269531%, 58.277893%, 100%)" offset="0.734375"/><stop stop-opacity="1" stop-color="rgb(76.582336%, 58.094788%, 100%)" offset="0.738281"/><stop stop-opacity="1" stop-color="rgb(76.896667%, 57.913208%, 100%)" offset="0.742188"/><stop stop-opacity="1" stop-color="rgb(77.209473%, 57.730103%, 100%)" offset="0.746094"/><stop stop-opacity="1" stop-color="rgb(77.523804%, 57.548523%, 100%)" offset="0.75"/><stop stop-opacity="1" stop-color="rgb(77.836609%, 57.366943%, 100%)" offset="0.753906"/><stop stop-opacity="1" stop-color="rgb(78.15094%, 57.185364%, 100%)" offset="0.757812"/><stop stop-opacity="1" stop-color="rgb(78.465271%, 57.002258%, 100%)" offset="0.761719"/><stop stop-opacity="1" stop-color="rgb(78.779602%, 56.820679%, 100%)" offset="0.765625"/><stop stop-opacity="1" stop-color="rgb(79.092407%, 56.639099%, 100%)" offset="0.769531"/><stop stop-opacity="1" stop-color="rgb(79.406738%, 56.45752%, 100%)" offset="0.773438"/><stop stop-opacity="1" stop-color="rgb(79.719543%, 56.274414%, 100%)" offset="0.777344"/><stop stop-opacity="1" stop-color="rgb(80.033875%, 56.092834%, 100%)" offset="0.78125"/><stop stop-opacity="1" stop-color="rgb(80.34668%, 55.911255%, 100%)" offset="0.785156"/><stop stop-opacity="1" stop-color="rgb(80.661011%, 55.729675%, 100%)" offset="0.789062"/><stop stop-opacity="1" stop-color="rgb(80.973816%, 55.54657%, 100%)" offset="0.792969"/><stop stop-opacity="1" stop-color="rgb(81.288147%, 55.36499%, 100%)" offset="0.796875"/><stop stop-opacity="1" stop-color="rgb(81.600952%, 55.181885%, 100%)" offset="0.800781"/><stop stop-opacity="1" stop-color="rgb(81.915283%, 55.000305%, 100%)" offset="0.804688"/><stop stop-opacity="1" stop-color="rgb(82.228088%, 54.818726%, 100%)" offset="0.808594"/><stop stop-opacity="1" stop-color="rgb(82.542419%, 54.637146%, 100%)" offset="0.8125"/><stop stop-opacity="1" stop-color="rgb(82.85675%, 54.454041%, 100%)" offset="0.816406"/><stop stop-opacity="1" stop-color="rgb(83.171082%, 54.272461%, 100%)" offset="0.820312"/><stop stop-opacity="1" stop-color="rgb(83.483887%, 54.090881%, 100%)" offset="0.824219"/><stop stop-opacity="1" stop-color="rgb(83.798218%, 53.909302%, 100%)" offset="0.828125"/><stop stop-opacity="1" stop-color="rgb(84.111023%, 53.726196%, 100%)" offset="0.832031"/><stop stop-opacity="1" stop-color="rgb(84.425354%, 53.544617%, 100%)" offset="0.835938"/><stop stop-opacity="1" stop-color="rgb(84.738159%, 53.361511%, 100%)" offset="0.839844"/><stop stop-opacity="1" stop-color="rgb(85.05249%, 53.179932%, 100%)" offset="0.84375"/><stop stop-opacity="1" stop-color="rgb(85.365295%, 52.998352%, 100%)" offset="0.847656"/><stop stop-opacity="1" stop-color="rgb(85.679626%, 52.816772%, 100%)" offset="0.851562"/><stop stop-opacity="1" stop-color="rgb(85.992432%, 52.633667%, 100%)" offset="0.855469"/><stop stop-opacity="1" stop-color="rgb(86.306763%, 52.452087%, 100%)" offset="0.859375"/><stop stop-opacity="1" stop-color="rgb(86.619568%, 52.270508%, 100%)" offset="0.863281"/><stop stop-opacity="1" stop-color="rgb(86.933899%, 52.088928%, 100%)" offset="0.867188"/><stop stop-opacity="1" stop-color="rgb(87.246704%, 51.905823%, 100%)" offset="0.871094"/><stop stop-opacity="1" stop-color="rgb(87.561035%, 51.724243%, 100%)" offset="0.875"/><stop stop-opacity="1" stop-color="rgb(87.875366%, 51.541138%, 100%)" offset="0.878906"/><stop stop-opacity="1" stop-color="rgb(88.189697%, 51.359558%, 100%)" offset="0.882813"/><stop stop-opacity="1" stop-color="rgb(88.502502%, 51.177979%, 100%)" offset="0.886719"/><stop stop-opacity="1" stop-color="rgb(88.816833%, 50.996399%, 100%)" offset="0.890625"/><stop stop-opacity="1" stop-color="rgb(89.129639%, 50.813293%, 100%)" offset="0.894531"/><stop stop-opacity="1" stop-color="rgb(89.44397%, 50.631714%, 100%)" offset="0.898438"/><stop stop-opacity="1" stop-color="rgb(89.756775%, 50.450134%, 100%)" offset="0.902344"/><stop stop-opacity="1" stop-color="rgb(90.071106%, 50.268555%, 100%)" offset="0.90625"/><stop stop-opacity="1" stop-color="rgb(90.383911%, 50.085449%, 100%)" offset="0.910156"/><stop stop-opacity="1" stop-color="rgb(90.698242%, 49.90387%, 100%)" offset="0.914063"/><stop stop-opacity="1" stop-color="rgb(91.011047%, 49.720764%, 100%)" offset="0.917969"/><stop stop-opacity="1" stop-color="rgb(91.325378%, 49.539185%, 100%)" offset="0.921875"/><stop stop-opacity="1" stop-color="rgb(91.638184%, 49.357605%, 100%)" offset="0.925781"/><stop stop-opacity="1" stop-color="rgb(91.952515%, 49.176025%, 100%)" offset="0.929688"/><stop stop-opacity="1" stop-color="rgb(92.266846%, 48.99292%, 100%)" offset="0.933594"/><stop stop-opacity="1" stop-color="rgb(92.581177%, 48.81134%, 100%)" offset="0.9375"/><stop stop-opacity="1" stop-color="rgb(92.893982%, 48.629761%, 100%)" offset="0.941406"/><stop stop-opacity="1" stop-color="rgb(93.208313%, 48.448181%, 100%)" offset="0.945312"/><stop stop-opacity="1" stop-color="rgb(93.521118%, 48.265076%, 100%)" offset="0.949219"/><stop stop-opacity="1" stop-color="rgb(93.835449%, 48.083496%, 100%)" offset="0.953125"/><stop stop-opacity="1" stop-color="rgb(94.148254%, 47.900391%, 100%)" offset="0.957031"/><stop stop-opacity="1" stop-color="rgb(94.462585%, 47.718811%, 100%)" offset="0.960938"/><stop stop-opacity="1" stop-color="rgb(94.775391%, 47.537231%, 100%)" offset="0.964844"/><stop stop-opacity="1" stop-color="rgb(95.089722%, 47.355652%, 100%)" offset="0.96875"/><stop stop-opacity="1" stop-color="rgb(95.402527%, 47.172546%, 100%)" offset="0.972656"/><stop stop-opacity="1" stop-color="rgb(95.716858%, 46.990967%, 100%)" offset="0.976562"/><stop stop-opacity="1" stop-color="rgb(96.029663%, 46.809387%, 100%)" offset="0.980469"/><stop stop-opacity="1" stop-color="rgb(96.343994%, 46.627808%, 100%)" offset="0.984375"/><stop stop-opacity="1" stop-color="rgb(96.658325%, 46.444702%, 100%)" offset="0.988281"/><stop stop-opacity="1" stop-color="rgb(96.972656%, 46.263123%, 100%)" offset="0.992188"/><stop stop-opacity="1" stop-color="rgb(97.285461%, 46.081543%, 100%)" offset="0.996094"/><stop stop-opacity="1" stop-color="rgb(97.599792%, 45.899963%, 100%)" offset="1"/></linearGradient></defs><g clip-path="url(#38cedcabca)"><g clip-path="url(#dbaa0cdb97)"><path fill="url(#a5fe051808)" d="M 22.910156 147.695312 L 22.910156 208.3125 L 83.535156 208.3125 L 83.535156 147.695312 Z M 22.910156 147.695312 " fill-rule="nonzero"/></g></g><path fill="#ccffcc" d="M 170.894531 173.054688 C 170.75 173.164062 170.613281 173.25 170.484375 173.308594 C 170.542969 172.8125 170.601562 172.320312 170.660156 171.824219 C 170.96875 171.667969 171.238281 171.417969 171.386719 171.164062 C 171.480469 171.007812 171.566406 170.839844 171.652344 170.664062 C 171.398438 171.558594 171.089844 172.402344 170.894531 173.054688 Z M 169.179688 172.882812 C 168.976562 172.566406 168.863281 172.210938 168.835938 171.835938 C 168.761719 171.375 168.808594 170.878906 168.882812 170.398438 C 168.914062 170.535156 168.945312 170.667969 168.984375 170.792969 C 168.964844 171.058594 168.957031 171.320312 168.957031 171.566406 C 168.960938 171.84375 169.261719 171.925781 169.5625 171.878906 C 169.519531 172.3125 169.476562 172.746094 169.425781 173.179688 C 169.339844 173.101562 169.257812 173 169.179688 172.882812 Z M 170.945312 169.261719 C 170.972656 169.011719 171 168.761719 171.027344 168.515625 C 171.058594 168.183594 171.097656 167.851562 171.136719 167.519531 C 171.210938 168.097656 171.109375 168.683594 170.945312 169.261719 Z M 170.207031 159.105469 C 170.578125 161.085938 170.46875 163.046875 170.257812 165.011719 C 170.019531 165.117188 169.808594 165.265625 169.632812 165.457031 C 169.296875 165.386719 168.734375 165.570312 168.683594 165.878906 C 168.304688 168.136719 167.105469 170.65625 167.832031 172.941406 C 168.0625 173.664062 168.640625 174.058594 169.304688 174.210938 C 168.957031 177.039062 168.523438 179.855469 168.269531 182.703125 C 168.25 182.914062 169.425781 182.769531 169.460938 182.386719 C 169.699219 179.671875 170.035156 176.964844 170.367188 174.25 C 170.757812 174.199219 171.128906 174.085938 171.4375 173.910156 C 171.96875 173.609375 172.117188 172.851562 172.269531 172.324219 C 172.613281 171.089844 173.027344 169.992188 173.121094 168.703125 C 173.21875 167.34375 173.019531 165.183594 171.445312 164.882812 C 171.664062 162.855469 171.777344 160.828125 171.398438 158.789062 C 171.34375 158.496094 170.144531 158.777344 170.207031 159.105469 " fill-opacity="1" fill-rule="nonzero"/><path fill="#ccffcc" d="M 175.207031 158.9375 C 182.25 160.597656 183.101562 167.355469 182.875 173.8125 C 182.574219 173.804688 182.140625 173.921875 182.03125 174.082031 C 180.9375 175.636719 179.339844 176.65625 178.152344 178.125 C 175.273438 181.679688 170.585938 184.386719 165.84375 182.484375 C 162.179688 181.015625 159.734375 176.980469 156.636719 174.625 C 157.039062 172.230469 157.589844 169.859375 158.378906 167.515625 C 160.773438 160.398438 168.160156 157.285156 175.207031 158.9375 Z M 172.152344 204.242188 C 167.433594 205.714844 161.070312 204.363281 157.71875 200.675781 C 154.050781 196.625 155.40625 189.933594 155.640625 185.046875 C 155.785156 181.941406 156.003906 178.867188 156.449219 175.828125 C 160.21875 179.121094 163.808594 184.554688 169.328125 183.808594 C 174.855469 183.058594 179.652344 178.851562 182.847656 174.460938 C 182.738281 176.878906 182.496094 179.226562 182.398438 181.222656 C 182.390625 181.253906 182.390625 181.285156 182.398438 181.316406 C 184.375 190.070312 181.644531 201.28125 172.152344 204.242188 Z M 182.074219 127.886719 C 181.34375 128.054688 181.527344 128.722656 182.246094 128.550781 C 186.511719 127.558594 189.574219 131.3125 190.230469 135.066406 C 191.511719 142.425781 181.042969 141.191406 176.847656 140.136719 C 171.328125 138.738281 165.664062 134.039062 159.660156 135.304688 C 154.46875 136.394531 151.265625 141.628906 155.035156 146.492188 C 156.351562 148.1875 158.554688 149.058594 160.695312 149.132812 C 163.683594 149.242188 165.953125 149.125 168.105469 151.703125 C 169.492188 153.359375 170.507812 155.523438 170.179688 157.695312 C 160.792969 158.097656 157.113281 166.128906 155.554688 174.707031 C 155.398438 174.804688 155.320312 174.917969 155.421875 174.996094 C 155.445312 175.011719 155.46875 175.03125 155.496094 175.050781 C 154.789062 179.074219 154.539062 183.199219 154.371094 186.691406 C 154.113281 192.222656 153.285156 198.160156 157.753906 202.292969 C 161.03125 205.316406 167.195312 206.082031 171.378906 205.085938 C 182.023438 202.558594 185.800781 190.8125 183.59375 181.007812 C 184.082031 171.054688 185.667969 158.859375 172.554688 157.746094 C 172.148438 157.714844 171.75 157.695312 171.359375 157.683594 C 171.878906 154.699219 169.964844 151.847656 167.933594 149.8125 C 164.988281 146.863281 159.851562 149.496094 156.625 146.644531 C 155.054688 145.253906 154.644531 141.859375 154.792969 139.972656 C 155.285156 133.792969 164.183594 136.085938 167.390625 137.347656 C 171.121094 138.816406 174.433594 140.507812 178.410156 141.367188 C 183.125 142.378906 190.191406 142.269531 191.410156 136.421875 C 192.511719 131.15625 186.8125 126.78125 182.074219 127.886719 " fill-opacity="1" fill-rule="nonzero"/><g fill="#000000" fill-opacity="0.4"><g transform="translate(89.789722, 204.172033)"><g><path d="M -3.296875 0 L 7.609375 -47.34375 L 26.5625 -47.34375 L 24.46875 -38.140625 L 15.046875 -38.140625 L 13.28125 -30.578125 L 22.21875 -30.578125 L 20.125 -21.5 L 11.1875 -21.5 L 6.234375 0 Z M -3.296875 0 "/></g></g></g><g fill="#000000" fill-opacity="0.4"><g transform="translate(111.775229, 204.172033)"><g><path d="M -3.734375 0 L 7.171875 -47.34375 L 16.3125 -47.34375 L 5.40625 0 Z M -3.734375 0 "/></g></g></g><g fill="#000000" fill-opacity="0.4"><g transform="translate(124.283277, 204.172033)"><g><path d="M 0.71875 0 L 9.53125 -38.25 L 3.90625 -38.25 L 6 -47.34375 L 26.734375 -47.34375 L 24.640625 -38.25 L 19.015625 -38.25 L 10.1875 0 Z M 0.71875 0 "/></g></g></g><g fill="#ccffcc" fill-opacity="1"><g transform="translate(87.354357, 201.736672)"><g><path d="M -3.296875 0 L 7.609375 -47.34375 L 26.5625 -47.34375 L 24.46875 -38.140625 L 15.046875 -38.140625 L 13.28125 -30.578125 L 22.21875 -30.578125 L 20.125 -21.5 L 11.1875 -21.5 L 6.234375 0 Z M -3.296875 0 "/></g></g></g><g fill="#ccffcc" fill-opacity="1"><g transform="translate(109.339864, 201.736672)"><g><path d="M -3.734375 0 L 7.171875 -47.34375 L 16.3125 -47.34375 L 5.40625 0 Z M -3.734375 0 "/></g></g></g><g fill="#ccffcc" fill-opacity="1"><g transform="translate(121.847912, 201.736672)"><g><path d="M 0.71875 0 L 9.53125 -38.25 L 3.90625 -38.25 L 6 -47.34375 L 26.734375 -47.34375 L 24.640625 -38.25 L 19.015625 -38.25 L 10.1875 0 Z M 0.71875 0 "/></g></g></g><g fill="#000000" fill-opacity="0.4"><g transform="translate(146.098312, 204.172033)"><g/></g></g><g fill="#000000" fill-opacity="0.4"><g transform="translate(158.992061, 204.172033)"><g/></g></g><g fill="#000000" fill-opacity="0.4"><g transform="translate(171.88581, 204.172033)"><g/></g></g><g fill="#000000" fill-opacity="0.4"><g transform="translate(184.779558, 204.172033)"><g/></g></g><g fill="#ccffcc" fill-opacity="1"><g transform="translate(143.662947, 201.736672)"><g/></g></g><g fill="#ccffcc" fill-opacity="1"><g transform="translate(156.556696, 201.736672)"><g/></g></g><g fill="#ccffcc" fill-opacity="1"><g transform="translate(169.450445, 201.736672)"><g/></g></g><g fill="#ccffcc" fill-opacity="1"><g transform="translate(182.344193, 201.736672)"><g/></g></g><g fill="#000000" fill-opacity="0.4"><g transform="translate(197.672531, 204.172033)"><g><path d="M -3.296875 0 L 7.609375 -47.34375 L 26.5625 -47.34375 L 24.46875 -38.140625 L 15.046875 -38.140625 L 13.28125 -30.578125 L 22.21875 -30.578125 L 20.125 -21.5 L 11.1875 -21.5 L 6.234375 0 Z M -3.296875 0 "/></g></g></g><g fill="#000000" fill-opacity="0.4"><g transform="translate(219.658038, 204.172033)"><g><path d="M -3.734375 0 L 7.171875 -47.34375 L 16.3125 -47.34375 L 5.40625 0 Z M -3.734375 0 "/></g></g></g><g fill="#000000" fill-opacity="0.4"><g transform="translate(232.166086, 204.172033)"><g><path d="M -3.296875 0 L 7.609375 -47.34375 L 17.359375 -47.34375 L 16.484375 -24.6875 L 21.71875 -47.34375 L 30.875 -47.34375 L 19.953125 0 L 10.703125 0 L 11.421875 -23.703125 L 5.953125 0 Z M -3.296875 0 "/></g></g></g><g fill="#000000" fill-opacity="0.4"><g transform="translate(259.606636, 204.172033)"><g><path d="M 7.609375 -47.34375 L 20.671875 -47.34375 C 24.054688 -47.34375 26.378906 -46.40625 27.640625 -44.53125 C 28.910156 -42.65625 29.140625 -39.878906 28.328125 -36.203125 L 23.3125 -14.046875 C 22.25 -9.378906 20.625 -5.867188 18.4375 -3.515625 C 16.25 -1.171875 13.25 0 9.4375 0 L -3.296875 0 Z M 9.8125 -8.375 C 11.539062 -8.375 12.609375 -9.21875 13.015625 -10.90625 L 18.640625 -35.328125 C 18.890625 -36.390625 18.988281 -37.1875 18.9375 -37.71875 C 18.882812 -38.25 18.664062 -38.609375 18.28125 -38.796875 C 17.894531 -38.984375 17.238281 -39.078125 16.3125 -39.078125 L 15.265625 -39.078125 L 8.15625 -8.375 Z M 9.8125 -8.375 "/></g></g></g><g fill="#000000" fill-opacity="0.4"><g transform="translate(286.771681, 204.172033)"><g><path d="M -3.296875 0 L 7.609375 -47.34375 L 26.5625 -47.34375 L 24.46875 -38.1875 L 15.15625 -38.1875 L 13.015625 -28.984375 L 21.9375 -28.984375 L 19.90625 -20.0625 L 10.96875 -20.0625 L 8.4375 -9.203125 L 18.359375 -9.203125 L 16.265625 0 Z M -3.296875 0 "/></g></g></g><g fill="#000000" fill-opacity="0.4"><g transform="translate(309.473507, 204.172033)"><g><path d="M 7.609375 -47.34375 L 22.15625 -47.34375 C 24.476562 -47.34375 26.148438 -46.816406 27.171875 -45.765625 C 28.203125 -44.722656 28.71875 -43.253906 28.71875 -41.359375 C 28.71875 -39.460938 28.390625 -37.046875 27.734375 -34.109375 C 27.109375 -31.429688 26.269531 -29.335938 25.21875 -27.828125 C 24.175781 -26.328125 22.71875 -25.28125 20.84375 -24.6875 C 22.195312 -24.394531 23.066406 -23.675781 23.453125 -22.53125 C 23.835938 -21.394531 23.8125 -19.851562 23.375 -17.90625 L 19.125 0 L 9.875 0 L 14.109375 -18.515625 C 14.441406 -19.835938 14.382812 -20.679688 13.9375 -21.046875 C 13.5 -21.421875 12.601562 -21.609375 11.25 -21.609375 L 6.296875 0 L -3.296875 0 Z M 15.5 -29.8125 C 16.820312 -29.8125 17.8125 -31.242188 18.46875 -34.109375 C 18.757812 -35.359375 18.914062 -36.296875 18.9375 -36.921875 C 18.957031 -37.546875 18.847656 -37.976562 18.609375 -38.21875 C 18.367188 -38.457031 17.972656 -38.578125 17.421875 -38.578125 L 15.21875 -38.578125 L 13.234375 -29.8125 Z M 15.5 -29.8125 "/></g></g></g><g fill="#ccffcc" fill-opacity="1"><g transform="translate(195.237167, 201.736672)"><g><path d="M -3.296875 0 L 7.609375 -47.34375 L 26.5625 -47.34375 L 24.46875 -38.140625 L 15.046875 -38.140625 L 13.28125 -30.578125 L 22.21875 -30.578125 L 20.125 -21.5 L 11.1875 -21.5 L 6.234375 0 Z M -3.296875 0 "/></g></g></g><g fill="#ccffcc" fill-opacity="1"><g transform="translate(217.222673, 201.736672)"><g><path d="M -3.734375 0 L 7.171875 -47.34375 L 16.3125 -47.34375 L 5.40625 0 Z M -3.734375 0 "/></g></g></g><g fill="#ccffcc" fill-opacity="1"><g transform="translate(229.730722, 201.736672)"><g><path d="M -3.296875 0 L 7.609375 -47.34375 L 17.359375 -47.34375 L 16.484375 -24.6875 L 21.71875 -47.34375 L 30.875 -47.34375 L 19.953125 0 L 10.703125 0 L 11.421875 -23.703125 L 5.953125 0 Z M -3.296875 0 "/></g></g></g><g fill="#ccffcc" fill-opacity="1"><g transform="translate(257.171271, 201.736672)"><g><path d="M 7.609375 -47.34375 L 20.671875 -47.34375 C 24.054688 -47.34375 26.378906 -46.40625 27.640625 -44.53125 C 28.910156 -42.65625 29.140625 -39.878906 28.328125 -36.203125 L 23.3125 -14.046875 C 22.25 -9.378906 20.625 -5.867188 18.4375 -3.515625 C 16.25 -1.171875 13.25 0 9.4375 0 L -3.296875 0 Z M 9.8125 -8.375 C 11.539062 -8.375 12.609375 -9.21875 13.015625 -10.90625 L 18.640625 -35.328125 C 18.890625 -36.390625 18.988281 -37.1875 18.9375 -37.71875 C 18.882812 -38.25 18.664062 -38.609375 18.28125 -38.796875 C 17.894531 -38.984375 17.238281 -39.078125 16.3125 -39.078125 L 15.265625 -39.078125 L 8.15625 -8.375 Z M 9.8125 -8.375 "/></g></g></g><g fill="#ccffcc" fill-opacity="1"><g transform="translate(284.336316, 201.736672)"><g><path d="M -3.296875 0 L 7.609375 -47.34375 L 26.5625 -47.34375 L 24.46875 -38.1875 L 15.15625 -38.1875 L 13.015625 -28.984375 L 21.9375 -28.984375 L 19.90625 -20.0625 L 10.96875 -20.0625 L 8.4375 -9.203125 L 18.359375 -9.203125 L 16.265625 0 Z M -3.296875 0 "/></g></g></g><g fill="#ccffcc" fill-opacity="1"><g transform="translate(307.038142, 201.736672)"><g><path d="M 7.609375 -47.34375 L 22.15625 -47.34375 C 24.476562 -47.34375 26.148438 -46.816406 27.171875 -45.765625 C 28.203125 -44.722656 28.71875 -43.253906 28.71875 -41.359375 C 28.71875 -39.460938 28.390625 -37.046875 27.734375 -34.109375 C 27.109375 -31.429688 26.269531 -29.335938 25.21875 -27.828125 C 24.175781 -26.328125 22.71875 -25.28125 20.84375 -24.6875 C 22.195312 -24.394531 23.066406 -23.675781 23.453125 -22.53125 C 23.835938 -21.394531 23.8125 -19.851562 23.375 -17.90625 L 19.125 0 L 9.875 0 L 14.109375 -18.515625 C 14.441406 -19.835938 14.382812 -20.679688 13.9375 -21.046875 C 13.5 -21.421875 12.601562 -21.609375 11.25 -21.609375 L 6.296875 0 L -3.296875 0 Z M 15.5 -29.8125 C 16.820312 -29.8125 17.8125 -31.242188 18.46875 -34.109375 C 18.757812 -35.359375 18.914062 -36.296875 18.9375 -36.921875 C 18.957031 -37.546875 18.847656 -37.976562 18.609375 -38.21875 C 18.367188 -38.457031 17.972656 -38.578125 17.421875 -38.578125 L 15.21875 -38.578125 L 13.234375 -29.8125 Z M 15.5 -29.8125 "/></g></g></g></svg>